<?xml version="1.0" standalone="no"?>
<!DOCTYPE svg PUBLIC "-//W3C//DTD SVG 20010904//EN"
 "http://www.w3.org/TR/2001/REC-SVG-20010904/DTD/svg10.dtd">
<svg version="1.0" xmlns="http://www.w3.org/2000/svg"
 width="420.000000pt" height="420.000000pt" viewBox="0 0 420.000000 420.000000"
 preserveAspectRatio="xMidYMid meet">

<g transform="translate(0.000000,420.000000) scale(0.100000,-0.100000)"
fill="#000000" stroke="none">
<path d="M1358 3594 c-2 -1 -16 -5 -33 -7 -61 -11 -77 -17 -131 -43 -73 -35
-183 -142 -199 -193 -3 -12 -10 -21 -14 -21 -4 0 -8 -6 -9 -12 -1 -7 -13 -47
-28 -88 -54 -148 -31 -337 68 -560 28 -63 51 -124 51 -136 0 -43 -64 -152
-152 -258 -108 -130 -154 -214 -188 -344 -23 -84 -26 -118 -27 -252 -1 -161 4
-188 50 -312 36 -96 94 -180 161 -233 147 -115 450 -222 713 -251 62 -7 69
-10 140 -71 205 -176 393 -187 625 -38 l60 39 146 2 c358 5 627 78 749 204 96
99 175 265 200 420 22 145 5 357 -40 470 -11 28 -48 94 -81 147 -72 113 -102
176 -123 257 -17 66 -14 77 49 165 118 165 184 382 165 540 -10 72 -51 194
-75 221 -8 9 -15 21 -15 27 0 20 -105 113 -159 142 -93 49 -161 64 -265 58
-79 -5 -125 -11 -133 -17 -2 -2 -6 -3 -10 -5 -59 -16 -119 -48 -215 -112 -109
-73 -108 -73 -248 -37 -49 13 -113 17 -261 18 l-197 1 -53 50 c-169 158 -292
221 -443 228 -42 2 -77 3 -78 1z m172 -305 c45 -10 120 -54 120 -70 0 -5 -37
-33 -82 -63 -143 -94 -235 -180 -347 -323 -18 -24 -38 -43 -46 -43 -16 0 -52
84 -66 154 -22 105 23 211 110 264 81 49 188 89 246 91 11 0 40 -4 65 -10z
m1600 -162 c150 -75 194 -131 195 -253 0 -65 -4 -79 -45 -158 -29 -58 -49 -86
-59 -84 -8 2 -30 30 -48 62 -70 124 -131 205 -235 311 -102 104 -107 111 -90
127 22 23 118 47 162 41 19 -2 73 -23 120 -46z m-833 -172 c68 -20 103 -49
103 -85 0 -46 10 -59 57 -81 60 -27 54 -47 -24 -83 -66 -31 -79 -46 -40 -46
30 0 41 -9 61 -47 25 -50 7 -62 -159 -102 -110 -26 -126 -26 -173 -2 -20 10
-83 33 -139 51 -116 36 -123 46 -75 106 19 23 35 34 54 34 43 0 39 13 -13 45
-72 43 -73 63 -8 128 82 81 114 95 230 96 41 1 98 -6 126 -14z m-555 -882 c33
-30 23 -43 -36 -43 -62 0 -72 7 -50 38 18 26 60 29 86 5z m894 -68 c14 -14 22
-30 19 -35 -7 -12 -85 -13 -103 -2 -17 11 -4 42 22 52 31 13 35 12 62 -15z
m-459 -187 c11 -13 33 -45 49 -73 38 -65 146 -180 202 -212 25 -15 67 -30 94
-34 38 -6 73 -25 159 -85 135 -95 143 -107 92 -133 -65 -32 -233 -81 -312 -91
-42 -5 -114 -14 -161 -20 -147 -18 -230 -13 -419 26 -182 36 -271 67 -380 131
-69 41 -88 61 -78 86 3 9 56 45 117 81 98 59 116 66 163 66 96 0 187 56 322
196 88 92 115 102 152 62z m-751 -503 c43 -18 64 -38 64 -62 0 -33 60 -123
133 -200 70 -74 179 -163 199 -163 6 0 -6 20 -27 46 -20 25 -35 47 -33 49 3 3
22 -11 44 -30 39 -35 64 -44 64 -25 0 16 63 11 135 -11 61 -18 76 -19 150 -10
73 10 86 9 113 -6 29 -17 30 -17 66 10 20 16 43 41 51 58 16 30 35 39 35 17 0
-17 -36 -76 -63 -106 l-22 -23 28 10 c100 38 306 210 347 290 10 21 25 43 34
50 20 17 104 42 110 33 8 -13 -41 -123 -65 -148 -13 -14 -29 -22 -36 -20 -7 3
-43 -22 -80 -55 -123 -110 -276 -219 -382 -272 -96 -48 -110 -52 -187 -56 -59
-2 -97 2 -134 14 -112 37 -282 179 -433 361 -37 45 -78 89 -91 97 -30 20 -66
93 -66 135 0 37 -1 37 46 17z m529 -160 c65 -8 191 -15 280 -15 l160 0 -55
-32 c-54 -30 -55 -31 -85 -13 -41 23 -305 43 -353 25 -30 -11 -35 -9 -68 19
-41 37 -44 36 121 16z m781 -113 c-17 -16 -18 -16 -5 5 7 12 15 20 18 17 3 -2
-3 -12 -13 -22z"/>
<path d="M1947 1566 c-62 -17 -87 -41 -87 -82 0 -44 15 -77 71 -154 76 -104
110 -132 166 -137 46 -4 51 -2 114 51 161 137 195 237 98 287 -89 45 -262 62
-362 35z"/>
</g>
</svg>
